<svg t="1705733143555" class="icon" viewBox="0 0 1024 1024" version="1.1" xmlns="http://www.w3.org/2000/svg" p-id="8656" width="200" height="200"><path d="M620.98394075 836.03911111v-2.42725926c0-18.07822697-5.21375289-32.89421748-14.06839467-47.20533807 36.40888889-12.5052397 62.73979733-44.302336 62.73979733-85.1968a94.60485689 94.60485689 0 0 0-14.07810371-49.63259733c36.40888889-12.49553067 62.74950637-44.302336 62.74950638-85.1968a91.99312592 91.99312592 0 0 0-11.04888416-43.92368356h93.8184249c51.08895289 0 92.46886875-38.59342222 92.46886873-90.05131852 0-51.4578963-41.38962489-93.08053808-92.46886873-93.08053807H442.09493333l56.31241482-56.67164919c36.16616297-36.40888889 30.94270103-100.73125925 0-131.80017778-30.95241008-30.95241008-93.33297303-51.33167882-137.6256-6.91283436L102.40485452 403.98696297a87.556096 87.556096 0 0 0-13.47614341 17.47626666c-38.70993067 47.45777303-61.65238518 101.81867141-61.65238519 216.75425185 0 262.50323437 141.62572325 286.90204445 316.38838993 286.90204444H528.50536297c51.09866192 0 92.47857778-37.62251852 92.47857778-89.08041481zM343.54820741 876.08888889c-147.82008889 0-267.7266963-0.72817778-267.7266963-237.87140741 0-100.48853333 22.45700267-160.81078045 67.72053334-206.44325451l244.66773333-246.24059734c21.84533333-21.84533333 49.63259733-16.26263703 67.4778074 1.58257304 17.83550103 17.83550103 18.44717037 50.60350103 1.33013807 67.83704178L377.04438518 335.42174341l-52.67152593 52.91425184h466.88817305c24.14637511 0 43.81688415 19.77730845 43.81688415 44.17611853s-19.6608 41.02068148-43.81688415 41.02068147H494.28100741v0.48545186a24.41822815 24.41822815 0 0 0-29.24361956 24.02986667 24.49590045 24.49590045 0 0 0 24.38910104 24.51531852c1.69908148 0 3.28165452-0.12621748 4.85451852-0.49516089v0.49516089h121.84841481c24.15608415 0 43.81688415 17.60248415 43.81688415 41.98187615 0 0 0.61166933 43.20521482-43.81688415 43.2052148H455.57107675v0.48545186a24.41822815 24.41822815 0 0 0-29.2533286 24.02986667 24.41822815 24.41822815 0 0 0 29.2533286 24.02015763v0.48545184h112.01316028c24.15608415 0 43.81688415 17.35975822 43.81688415 41.7585683 0 0-2.78649363 44.04990103-43.81688415 44.04990104H426.44396563v0.48545186a24.31142875 24.31142875 0 0 0-29.12711111 24.02986666c0 13.58294282 10.92266667 23.90364918 24.27259259 23.90364919 1.69908148 0 3.27194548-0.12621748 4.85451852-0.48545185v0.48545185h96.36219259c24.14637511 0 43.81688415 18.20444445 43.81688415 42.60325452 0 0 1.69908148 42.71976297-43.81688415 42.71976296L343.54820741 876.08888889z m319.553536-573.31863704h81.79863704a142.27622875 142.27622875 0 0 1 57.04059258-12.26251377c77.54607882 0 140.29558518 62.86601482 140.29558519 140.29558517 0 77.54607882-62.86601482 140.29558518-140.29558519 140.2955852-10.32070637 0-20.6317037-1.21362963-30.82619258-3.52438045a66.85642903 66.85642903 0 0 1-19.77730845 45.14702222c16.13641955 4.49528415 33.00101689 7.1555603 50.60350103 7.1555603 104.49836563 0 189.09320533-84.71134815 189.09320534-189.0834963 0-104.49836563-84.72105718-189.0834963-189.20971378-189.0834963-54.73955082 0.01941808-104.13913125 23.68034133-138.72272118 61.06013393z" p-id="8657" fill="#f2711c"></path></svg>