<svg t="1715046932177" class="icon" viewBox="0 0 1024 1024" version="1.1" xmlns="http://www.w3.org/2000/svg" p-id="5166" width="200" height="200"><path d="M309.124835 522.708878c0 111.860447 90.994252 202.881305 202.881305 202.881305 111.875796 0 202.868002-91.020858 202.868002-202.881305s-90.992205-202.882328-202.868002-202.882328c-111.887053 0-202.881305 91.021881-202.881305 202.882328z m342.090579 0c0 76.747811-62.446113 139.222577-139.209274 139.222577-76.774417 0-139.222577-62.474765-139.222577-139.222577 0-76.763161 62.447136-139.2236 139.222577-139.2236 76.763161 0 139.209274 62.461462 139.209274 139.2236z" fill="#474747" p-id="5167"></path><path d="M981.80917 519.045449l-60.854875-30.392133c-2.776224-32.476604-9.453284-64.235872-19.909406-95.036304l44.483032-57.388943c15.964568-20.613439 17.753304-48.878123 4.536307-71.337603a509.808083 509.808083 0 0 0-74.324627-97.150449c-12.271463-12.554919-28.785546-19.191046-45.59434-19.191046a63.428485 63.428485 0 0 0-26.533253 5.805204l-64.149914 29.448647a414.187473 414.187473 0 0 0-95.797642-46.878586L626.149578 65.982652c-6.340393-25.770892-28.010905-44.87598-54.373266-47.989895-20.274725-2.366903-40.367302-3.593844-59.770172-3.593844-19.386497 0-39.507727 1.225918-59.796778 3.593844-26.349059 3.113915-48.019571 22.220026-54.37429 47.989895l-17.499524 70.942607c-33.78848 11.412911-66.124891 27.22296-95.812991 46.878586l-64.136611-29.448647a63.438718 63.438718 0 0 0-26.545533-5.805204c-16.795491 0-33.322876 6.636127-45.581037 19.191046-28.546093 29.2358-53.54132 61.925251-74.325651 97.15045-13.215973 22.446177-11.426214 50.710861 4.537331 71.309973l44.483031 57.416573a402.936243 402.936243 0 0 0-19.923732 95.036303l-60.840548 30.392133C18.153416 531.063133 4.246712 556.861654 7.417932 583.5351a506.949994 506.949994 0 0 0 30.912995 123.654027c9.412352 24.108023 32.434648 40.128872 58.289451 40.550474l72.662781 1.198289a406.304961 406.304961 0 0 0 55.078323 66.602774l-14.48487 68.308622c-5.495143 25.869129 5.606683 52.48527 27.898341 66.800272a506.98274 506.98274 0 0 0 118.243818 55.880593 63.898181 63.898181 0 0 0 19.501107 3.070936 63.707847 63.707847 0 0 0 49.046969-23.049926l46.327025-55.894919a413.427158 413.427158 0 0 0 41.114314 2.056841c13.696926 0 27.433761-0.69073 41.101012-2.056841l46.355678 55.894919c12.301139 14.864516 30.392133 23.049926 49.006036 23.049926 6.509238 0 13.074757-1.014094 19.51441-3.070936 41.522613-13.385842 81.312771-32.180869 118.242795-55.880593 22.290634-14.315002 33.379158-40.889187 27.898341-66.772642l-14.48487-68.336252a406.304961 406.304961 0 0 0 55.078322-66.602774l72.647432-1.198289c25.869129-0.421601 48.892449-16.442451 58.262845-40.536147a504.923852 504.923852 0 0 0 30.954951-123.668354c3.16815-26.673446-10.738554-52.471967-34.775968-64.489651zM732.036999 257.296526l98.149194-45.074501a446.500348 446.500348 0 0 1 65.040189 85.004853l-38.56424 49.723372c-4.016469-7.890698-8.228389-15.724092-12.822001-23.375337-6.016005-10.045777-19.078483-13.300907-29.095607-7.269553-10.061126 6.030331-13.315234 19.090762-7.284903 29.10891 25.433201 42.410841 41.184922 89.048951 46.793653 138.65976 21.304169 188.720822-114.903753 359.589079-303.610249 380.893248-91.431203 10.299556-181.40829-15.582876-253.352712-72.92884-71.944422-57.346988-117.229724-139.278858-127.542583-230.709038-10.329232-91.415853 15.583899-181.394987 72.92884-253.337363 17.65609-22.136115 37.663733-41.734437 59.517416-58.586209 0.59147-0.436951 1.140984-0.873902 1.690499-1.309829 2.464116-1.846041 4.958932-3.621473 7.46705-5.411233 36.127753-25.530415 77.367934-44.397074 121.934876-54.69663l0.153496-0.577143c13.07578-3.04433 26.392037-5.438862 39.918072-6.973818 39.578335-4.466723 78.875261-2.127449 117.157069 6.846928l0.196474 0.704033c52.740073 12.173226 100.857881 36.252596 141.325467 69.30839zM459.648783 81.226814c17.161834-2.014886 34.646009-3.15587 52.357357-3.15587 17.725675 0 35.183243 1.140984 52.345077 3.15587l14.920798 60.475229c-36.338554-6.424303-73.395467-7.651245-110.663181-3.438302-8.045217 0.930183-15.992197 2.156102-23.910525 3.551888l14.950474-60.588815zM193.813807 212.222025l56.162001 25.799544a392.410537 392.410537 0 0 0-40.508518 43.523173c-16.387193 20.557157-30.476044 42.452796-42.185713 65.348203l-38.507959-49.666067a445.95595 445.95595 0 0 1 65.040189-85.004853zM70.639709 576.010745l55.358708-27.673215c0.408298 5.904465 0.901531 11.822233 1.578958 17.754328 4.719479 41.848023 16.062805 81.877635 33.194964 119.031762l-63.094888-1.028421a442.602582 442.602582 0 0 1-27.037742-108.084454zM272.168206 897.064236l12.919215-61.02372c39.791182 28.884806 83.990758 49.596482 130.543934 61.558908l-40.071568 48.329632c-36.803134-11.849862-71.492121-28.391574-103.391581-48.86482z m376.300659 48.86482l-40.282368-48.569085c48.060503-12.300116 92.133189-33.463069 130.668777-61.4883l12.977544 61.192565c-31.91481 20.487572-66.589471 37.029284-103.363953 48.86482z m277.853684-261.833857l-63.305688 1.028421c19.683255-42.340233 31.743918-88.583347 34.915137-136.812695l55.429316 27.69982a442.650678 442.650678 0 0 1-27.038765 108.084454z" fill="#474747" p-id="5168"></path><path d="M217.020298 522.695575c0 66.559795 22.782844 131.768829 64.150938 183.690259 4.198617 5.268993 10.383467 8.003262 16.611296 8.003261 4.649894 0 9.314114-1.50835 13.231323-4.607938 9.144246-7.298205 10.665899-20.669721 3.353367-29.842619-35.915929-45.059152-54.895151-99.432418-54.895151-157.242963 0-139.265555 113.28284-252.534069 252.533046-252.534069 26.954855 0 53.457409 4.226246 78.820002 12.525243 11.158108 3.677755 23.121557-2.451837 26.75531-13.569013 3.677755-11.131503-2.395555-23.121557-13.526034-26.77066-29.658424-9.708087-60.629748-14.625063-92.050302-14.625063-162.652149 0-294.983795 132.33267-294.983795 294.973562zM764.526906 522.695575c0 139.250206-113.281816 252.562721-252.520766 252.562721-40.339673 0-78.875261-9.201551-114.43815-27.348826-10.454075-5.297646-23.248447-1.17066-28.573722 9.285461-5.311972 10.411096-1.17066 23.205468 9.270112 28.546093 41.607547 21.204909 86.624743 31.941416 133.74176 31.941416 162.641915 0 294.960259-132.318344 294.960259-294.986865 0-71.676316-25.981692-140.772882-73.19797-194.554679-7.749482-8.792229-21.148627-9.651805-29.968485-1.944278-8.805532 7.749482-9.680457 21.14965-1.944278 29.955183 40.409258 46.031291 62.67124 105.167014 62.67124 166.543774z" fill="#474747" p-id="5169"></path></svg>